<?xml version="1.0" encoding="UTF-8" standalone="no"?>
<!-- Created with Inkscape (http://www.inkscape.org/) -->

<svg
   xmlns:dc="http://purl.org/dc/elements/1.1/"
   xmlns:cc="http://creativecommons.org/ns#"
   xmlns:rdf="http://www.w3.org/1999/02/22-rdf-syntax-ns#"
   xmlns:svg="http://www.w3.org/2000/svg"
   xmlns="http://www.w3.org/2000/svg"
   xmlns:sodipodi="http://sodipodi.sourceforge.net/DTD/sodipodi-0.dtd"
   xmlns:inkscape="http://www.inkscape.org/namespaces/inkscape"
   width="210mm"
   height="297mm"
   viewBox="0 0 210 297"
   version="1.1"
   id="svg8"
   inkscape:version="0.92.2 5c3e80d, 2017-08-06"
   sodipodi:docname="drawing.svg">
  <defs
     id="defs2" />
  <sodipodi:namedview
     id="base"
     pagecolor="#ffffff"
     bordercolor="#666666"
     borderopacity="1.0"
     inkscape:pageopacity="0.0"
     inkscape:pageshadow="2"
     inkscape:zoom="0.061871843"
     inkscape:cx="15029.906"
     inkscape:cy="-17376.067"
     inkscape:document-units="mm"
     inkscape:current-layer="layer1"
     showgrid="false"
     inkscape:window-width="1920"
     inkscape:window-height="959"
     inkscape:window-x="1"
     inkscape:window-y="0"
     inkscape:window-maximized="0" />
  <metadata
     id="metadata5">
    <rdf:RDF>
      <cc:Work
         rdf:about="">
        <dc:format>image/svg+xml</dc:format>
        <dc:type
           rdf:resource="http://purl.org/dc/dcmitype/StillImage" />
        <dc:title></dc:title>
      </cc:Work>
    </rdf:RDF>
  </metadata>
  <g
     inkscape:label="Layer 1"
     inkscape:groupmode="layer"
     id="layer1">
    <path
       style="fill:none;stroke:#000000;stroke-width:0.26458332px;stroke-linecap:butt;stroke-linejoin:miter;stroke-opacity:1"
       d="M 209.53931,899.96004 Z"
       id="path4560"
       inkscape:connector-curvature="0" />
    <path
       style="fill:#ff00ff;stroke:#000000;stroke-width:0.26458332px;stroke-linecap:butt;stroke-linejoin:miter;stroke-opacity:1"
       d="m 2048.3536,-665.1703 v 842.43355 h 893.7493 v -863.81511 l -893.7493,-4.2763 z"
       id="path4582"
       inkscape:connector-curvature="0" />
    <path
       style="fill:#00ffff;stroke:#000000;stroke-width:0.26458332px;stroke-linecap:butt;stroke-linejoin:miter;stroke-opacity:1"
       d="M 4485.8516,-643.78874 4088.6467,44.190382 h 829.1126 z"
       id="path4584"
       inkscape:connector-curvature="0" />
    <path
       style="fill:#00ff00;stroke:#000000;stroke-width:0.26458332px;stroke-linecap:butt;stroke-linejoin:miter;stroke-opacity:1"
       d="m 2240.4408,682.8391 c 401.3385,361.6679 190.085,1221.9977 -363.1396,1204.9489 -321.1914,-9.8982 -417.0506,-380.9042 -423.3549,-380.5917 0,0 453.5173,353.1635 675.6574,-76.9737 132.2724,-256.1234 -29.7509,-455.18224 -195.0017,-519.14845 -112.1605,-43.4158 -284.0145,17.91711 -322.4321,35.92531 -136.842,64.14474 -162.4999,162.49994 -162.4999,162.49994 0,0 65.1447,-213.16455 188.1578,-389.14447 60.0735,-85.93986 28.4098,-73.2629 205.4681,-115.87405 202.4058,-62.23261 283.3266,-22.20209 397.1449,78.35822 z"
       id="path4590"
       inkscape:connector-curvature="0"
       sodipodi:nodetypes="cscssscscc" />
    <path
       style="fill:#d40000;stroke:#000000;stroke-width:0.26458332px;stroke-linecap:butt;stroke-linejoin:miter;stroke-opacity:1"
       d="M 3972.6941,1336.1439 H 4994.7329 V 515.09194 c 0,0 -113.3337,-300.51139 -436.1838,-337.82869 -398.7432,-46.08956 -593.2592,324.64845 -585.855,329.27606 z"
       id="path4592"
       inkscape:connector-curvature="0"
       sodipodi:nodetypes="cccscc" />
    <path
       style="fill:#ff6600;stroke:#000000;stroke-width:0.26458332px;stroke-linecap:butt;stroke-linejoin:miter;stroke-opacity:1"
       d="m 671.38105,297 h 756.90725 c 0,0 71.2875,-435.29762 -243.7498,-551.6443 -96.0587,-35.47553 -384.60611,-22.67203 -470.39433,141.11831 C 684.84904,-57.594533 602.96004,241.40794 607.23636,275.61844 611.51267,309.82893 671.38105,297 671.38105,297 Z"
       id="path4594"
       inkscape:connector-curvature="0"
       sodipodi:nodetypes="ccsssc" />
    <path
       style="fill:#aad400;stroke:#000000;stroke-width:0.26458332px;stroke-linecap:butt;stroke-linejoin:miter;stroke-opacity:1"
       d="m 5601.9692,134.50013 c -0.6285,1.90923 -9.4789,-337.52598 235.1973,-320.72343 234.6833,16.11631 200.9866,333.55236 200.9866,333.55236 -20.0848,8.60777 325.0111,-76.935735 401.9734,102.6315 125.584,293.01091 -416.1224,287.25969 -410.5259,175.32881 -21.6651,72.27119 113.147,275.87933 4.276,342.105 -222.9597,128.60912 -338.3793,-0.64314 -393.4206,-29.93418 -69.5204,-36.99629 -13.303,-341.63671 -8.5526,-342.10501 0,13.91091 -161.4985,171.90132 -372.0392,-4.27631 -102.8868,-86.09427 -94.079,-183.88142 -8.5526,-265.13137 33.778,-32.089072 84.9122,-41.329103 136.8556,-46.278168 88.7444,-8.455394 213.802,50.427698 213.802,54.830798 z"
       id="path4596"
       inkscape:connector-curvature="0"
       sodipodi:nodetypes="cscsccscsssc" />
    <path
       style="fill:#000080;stroke:#000000;stroke-width:0.26458332px;stroke-linecap:butt;stroke-linejoin:miter;stroke-opacity:1"
       d="m 3446.7078,3760.8129 -346.3814,709.8679 -722.6968,8.5528 521.7103,598.6838 -303.6181,692.7625 1714.8011,-1325.6568 c -621.621,-61.6802 -814.6733,152.1752 -1086.1834,538.8152 0,0 -21.7656,-413.7456 81.25,-697.0389 119.7366,-329.276 183.8813,-372.0392 183.8813,-372.0392 z"
       id="path4630"
       inkscape:connector-curvature="0"
       sodipodi:nodetypes="cccccccscc" />
    <path
       style="fill:#ff0000;stroke:#000000;stroke-width:0.26458332px;stroke-linecap:butt;stroke-linejoin:miter;stroke-opacity:1"
       d="m 3374.0105,5171.9961 384.868,-256.5786 252.3026,791.1177 z"
       id="path4632"
       inkscape:connector-curvature="0"
       sodipodi:nodetypes="cccc" />
    <path
       style="fill:#ff0000;stroke:#000000;stroke-width:0.26458332px;stroke-linecap:butt;stroke-linejoin:miter;stroke-opacity:1"
       d="m 3224.3395,4983.8383 c -15.6472,-13.0085 256.5788,-825.3282 256.5788,-825.3282 -10.9331,-132.0396 662.8282,-466.1181 662.8282,-466.1181 183.8816,162.5002 151.8731,108.0828 17.1054,171.0528 -1.3877,-1.6391 -500.3165,244.0724 -547.3679,333.5522 -72.6974,59.8683 -389.1445,786.8413 -389.1445,786.8413 0,0 290.6305,-611.5127 491.776,-778.2887 308.8907,-229.2645 739.8019,-282.2366 739.8019,-282.2366 31.242,151.0815 337.6484,141.9853 -94.0786,166.7763 0,0 -487.4998,132.5655 -598.6841,239.4733 -127.0554,43.4221 -544.7448,630.5571 -538.8152,654.2757 z"
       id="path4636"
       inkscape:connector-curvature="0"
       sodipodi:nodetypes="ccccccccccc" />
    <path
       sodipodi:type="star"
       style="fill:#00ffff;stroke-width:0.26458332"
       id="path4659"
       sodipodi:sides="5"
       sodipodi:cx="5046.7246"
       sodipodi:cy="5335.9632"
       sodipodi:r1="647.09528"
       sodipodi:r2="323.54758"
       sodipodi:arg1="0.78539816"
       sodipodi:arg2="1.4137167"
       inkscape:flatsided="false"
       inkscape:rounded="0"
       inkscape:randomized="0"
       d="m 5504.2901,5793.5288 -406.9515,-138.0013 -344.3891,257.002 5.4921,-429.6786 -350.8455,-248.1155 410.3458,-127.5547 127.5547,-410.3458 248.1155,350.8455 429.6786,-5.4921 -257.0019,344.3891 z"
       inkscape:transform-center-x="31.281237"
       inkscape:transform-center-y="-31.281222" />
    <path
       sodipodi:type="star"
       style="fill:#808080;stroke-width:0.26458332"
       id="path4665"
       sodipodi:sides="5"
       sodipodi:cx="5227.5101"
       sodipodi:cy="5119.2455"
       sodipodi:r1="602.41388"
       sodipodi:r2="301.20697"
       sodipodi:arg1="0.46364761"
       sodipodi:arg2="1.0919661"
       inkscape:flatsided="false"
       inkscape:rounded="0"
       inkscape:randomized="0"
       d="m 5766.3256,5388.6533 -400.0369,-2.0761 -228.4973,328.3638 -121.6437,-381.0992 -382.9021,-115.8439 324.8569,-233.4561 -8.1492,-399.9593 322.4164,236.8154 377.8656,-131.3446 -125.5927,379.8161 z"
       inkscape:transform-center-x="27.724716"
       inkscape:transform-center-y="30.516079" />
    <path
       sodipodi:type="star"
       style="fill:#000000;stroke-width:0.26458332"
       id="path4669"
       sodipodi:sides="5"
       sodipodi:cx="5542.0036"
       sodipodi:cy="5095.6731"
       sodipodi:r1="807.45343"
       sodipodi:r2="403.72672"
       sodipodi:arg1="0.53951124"
       sodipodi:arg2="1.1678298"
       inkscape:flatsided="false"
       inkscape:rounded="0"
       inkscape:randomized="0"
       d="m 6234.7661,5510.4757 -534.4417,-43.4135 -338.746,415.6485 -123.8629,-521.6996 -499.9835,-193.7242 457.8901,-279.0147 29.7393,-535.3767 406.8545,349.2591 518.3634,-137.1567 -206.4402,494.8687 z"
       inkscape:transform-center-x="55.754465"
       inkscape:transform-center-y="22.129743" />
    <path
       sodipodi:type="star"
       style="fill:#ffffff;stroke-width:0.26458332"
       id="path4673"
       sodipodi:sides="5"
       sodipodi:cx="5747.3638"
       sodipodi:cy="4218.3784"
       sodipodi:r1="635.79144"
       sodipodi:r2="317.89575"
       sodipodi:arg1="0.67579136"
       sodipodi:arg2="1.3041099"
       inkscape:flatsided="false"
       inkscape:rounded="0"
       inkscape:randomized="0"
       d="m 6243.416,4616.0755 -412.2751,-91.0391 -308.7209,288.0109 -40.8167,-420.2296 -369.3147,-204.6108 387.049,-168.677 80.4719,-414.4673 280.0262,315.9814 419.049,-51.5441 -213.9833,363.9643 z"
       inkscape:transform-center-x="51.777176"
       inkscape:transform-center-y="-9.3235546" />
    <path
       sodipodi:type="star"
       style="fill:#000000;stroke-width:0.26458332"
       id="path4675"
       sodipodi:sides="5"
       sodipodi:cx="5768.7456"
       sodipodi:cy="4047.3259"
       sodipodi:r1="449.23843"
       sodipodi:r2="831.937"
       sodipodi:arg1="2.264222"
       sodipodi:arg2="2.6434839"
       inkscape:flatsided="false"
       inkscape:rounded="0"
       inkscape:randomized="0"
       d="m 5481.6034,4392.8177 -443.7042,51.9786 313.5324,-563.796 -186.5467,-405.9255 633.0887,123.9645 328.412,-302.8544 77.7379,640.4103 389.5165,218.7512 -585.0441,271.8308 -87.6775,438.0501 z"
       inkscape:transform-center-x="-9.0318719"
       inkscape:transform-center-y="-34.217723" />
  </g>
</svg>
