<?xml version="1.0" encoding="UTF-8" standalone="no"?>
<!-- Created with Inkscape (http://www.inkscape.org/) -->

<svg
   xmlns:dc="http://purl.org/dc/elements/1.1/"
   xmlns:cc="http://creativecommons.org/ns#"
   xmlns:rdf="http://www.w3.org/1999/02/22-rdf-syntax-ns#"
   xmlns:svg="http://www.w3.org/2000/svg"
   xmlns="http://www.w3.org/2000/svg"
   xmlns:sodipodi="http://sodipodi.sourceforge.net/DTD/sodipodi-0.dtd"
   xmlns:inkscape="http://www.inkscape.org/namespaces/inkscape"
   width="210mm"
   height="297mm"
   viewBox="0 0 210 297"
   version="1.1"
   id="svg8"
   inkscape:version="0.92.2 5c3e80d, 2017-08-06"
   sodipodi:docname="mylogo.svg">
  <defs
     id="defs2" />
  <sodipodi:namedview
     id="base"
     pagecolor="#ffffff"
     bordercolor="#666666"
     borderopacity="1.0"
     inkscape:pageopacity="0.0"
     inkscape:pageshadow="2"
     inkscape:zoom="0.5"
     inkscape:cx="129.99077"
     inkscape:cy="788.57143"
     inkscape:document-units="mm"
     inkscape:current-layer="layer1"
     showgrid="false"
     inkscape:snap-global="false"
     inkscape:window-width="1920"
     inkscape:window-height="959"
     inkscape:window-x="14"
     inkscape:window-y="0"
     inkscape:window-maximized="0" />
  <metadata
     id="metadata5">
    <rdf:RDF>
      <cc:Work
         rdf:about="">
        <dc:format>image/svg+xml</dc:format>
        <dc:type
           rdf:resource="http://purl.org/dc/dcmitype/StillImage" />
        <dc:title />
      </cc:Work>
    </rdf:RDF>
  </metadata>
  <g
     inkscape:label="Layer 1"
     inkscape:groupmode="layer"
     id="layer1">
    <path
       style="fill:#ffffff;stroke:#000000;stroke-width:0.26458332px;stroke-linecap:butt;stroke-linejoin:miter;stroke-opacity:1"
       d="m -399.89879,102.72024 c 0,0 44.60119,15.875 79.37498,-13.607146 34.77381,-29.482142 69.26825,-50.752254 105.07739,-39.309523 30.75403,9.827381 45.29328,36.285714 61.23214,43.845238 15.27289,7.243661 45.35714,7.559521 45.35714,7.559521 0,0 -31.75,6.80357 -46.86905,18.14286 -15.11905,11.33929 -55.19255,27.20053 -85.72499,31.52322 -28.18013,3.98965 -111.29691,-33.77037 -111.88096,-33.18631 z"
       id="path10"
       inkscape:connector-curvature="0"
       sodipodi:nodetypes="cssscsscc" />
    <path
       style="fill:#000000;stroke:#000000;stroke-width:0.26458332px;stroke-linecap:butt;stroke-linejoin:miter;stroke-opacity:1"
       d="m -390.07141,105.97082 57.45236,12.62442 c 0,0 58.37445,18.70825 78.61905,22.67857 32.1049,6.29634 88.60009,-27.02652 102.88512,-31.6744 l 39.61191,-8.39108 c 0,0 -27.59226,1.5119 -35.90774,-0.75595 -11.96279,-1.712296 -42.37751,-24.694246 -47.62501,-28.726189 -11.42173,-8.775953 -25.42129,-10.969915 -35.52975,-12.095238 -9.55799,-1.064042 -22.21342,-0.873136 -39.83869,8.013092 -12.23862,7.479389 -48.9865,30.483308 -58.43513,32.808335 -6.96385,1.7136 -15.5726,5.29166 -15.5726,5.29166 -5.93885,1.32488 -9.09373,1.78373 -17.7649,2.72143 z"
       id="path12"
       inkscape:connector-curvature="0"
       sodipodi:nodetypes="ccscccsscsccc" />
    <path
       style="fill:#ffffff;stroke:#000000;stroke-width:0.26458332px;stroke-linecap:butt;stroke-linejoin:miter;stroke-opacity:1"
       d="m -285.22084,76.866667 c 0,0 -5.21996,8.701336 -6.34999,25.929163 -1.24934,19.04668 26.8952,41.58436 45.50833,39.15834 11.55595,-1.50619 21.69583,-2.64583 21.69583,-2.64583 l 24.87084,-8.46667 c 9.66107,-1.5875 11.41736,-8.65123 13.22917,-12.69999 7.25069,-16.2028 5.29167,-23.406257 2.64583,-32.27918 -2.5167,-8.439846 -10.05417,-13.758333 -10.05417,-13.758333 -6.90762,-3.732623 -13.02384,-6.673837 -18.52083,-8.995832 -8.81945,-3.364877 -17.63889,-3.571568 -26.45834,-4.233335 -8.9102,0.438409 -15.72682,3.499563 -23.28332,5.291667 -7.9375,2.773175 -16.93335,8.696759 -23.28335,12.7 z"
       id="path45"
       inkscape:connector-curvature="0"
       sodipodi:nodetypes="cssccssccccc" />
    <path
       style="fill:#00ffff;stroke:#000000;stroke-width:0.26458332px;stroke-linecap:butt;stroke-linejoin:miter;stroke-opacity:1"
       d="m -272.52083,73.691668 35.98333,61.912502 38.62917,-61.912503 z"
       id="path47"
       inkscape:connector-curvature="0"
       sodipodi:nodetypes="cccc" />
    <ellipse
       style="fill:#000000;stroke-width:0.26458332"
       id="path51"
       cx="-236.00833"
       cy="94.329163"
       rx="20.637499"
       ry="20.108334" />
  </g>
</svg>
