<?xml version="1.0" encoding="UTF-8" standalone="no"?>
<!-- Created with Inkscape (http://www.inkscape.org/) -->

<svg
   xmlns:dc="http://purl.org/dc/elements/1.1/"
   xmlns:cc="http://creativecommons.org/ns#"
   xmlns:rdf="http://www.w3.org/1999/02/22-rdf-syntax-ns#"
   xmlns:svg="http://www.w3.org/2000/svg"
   xmlns="http://www.w3.org/2000/svg"
   xmlns:sodipodi="http://sodipodi.sourceforge.net/DTD/sodipodi-0.dtd"
   xmlns:inkscape="http://www.inkscape.org/namespaces/inkscape"
   width="210mm"
   height="297mm"
   viewBox="0 0 210 297"
   version="1.1"
   id="svg8"
   inkscape:version="0.92.2 5c3e80d, 2017-08-06"
   sodipodi:docname="mylogo.svg">
  <defs
     id="defs2" />
  <sodipodi:namedview
     id="base"
     pagecolor="#ffffff"
     bordercolor="#666666"
     borderopacity="1.0"
     inkscape:pageopacity="0.0"
     inkscape:pageshadow="2"
     inkscape:zoom="0.35"
     inkscape:cx="822.64619"
     inkscape:cy="788.57143"
     inkscape:document-units="mm"
     inkscape:current-layer="layer1"
     showgrid="false"
     inkscape:snap-global="false"
     inkscape:window-width="1920"
     inkscape:window-height="959"
     inkscape:window-x="29"
     inkscape:window-y="0"
     inkscape:window-maximized="0" />
  <metadata
     id="metadata5">
    <rdf:RDF>
      <cc:Work
         rdf:about="">
        <dc:format>image/svg+xml</dc:format>
        <dc:type
           rdf:resource="http://purl.org/dc/dcmitype/StillImage" />
        <dc:title></dc:title>
      </cc:Work>
    </rdf:RDF>
  </metadata>
  <g
     inkscape:label="Layer 1"
     inkscape:groupmode="layer"
     id="layer1">
    <path
       style="fill:#ffffff;stroke:#000000;stroke-width:0.26458332px;stroke-linecap:butt;stroke-linejoin:miter;stroke-opacity:1"
       d="m -399.89879,102.72024 c 0,0 44.60119,15.875 79.37498,-13.607146 34.77381,-29.482142 68.79167,-49.136905 105.07739,-39.309523 36.28571,9.827381 46.11309,36.285714 61.23214,43.845238 15.11904,7.559521 45.35714,7.559521 45.35714,7.559521 0,0 -31.75,6.80357 -46.86905,18.14286 -15.11905,11.33929 -54.42857,24.94643 -84.66666,30.99405 -30.23809,6.04761 -111.88096,-34.77381 -111.88096,-34.77381 z"
       id="path10"
       inkscape:connector-curvature="0"
       sodipodi:nodetypes="cssscsscc" />
    <path
       style="fill:none;stroke:#000000;stroke-width:0.26458332px;stroke-linecap:butt;stroke-linejoin:miter;stroke-opacity:1"
       d="m -384.77974,106.49999 52.16069,12.09525 c 0,0 58.35061,18.8318 78.61905,22.67857 31.85421,6.04565 108.55999,-32.46662 106.58929,-33.26191 l 38.55357,-6.80357 c 0,0 -30.23809,1.5119 -38.55357,-0.75595 -11.96279,-1.712296 -41.62146,-25.008139 -47.62501,-28.726189 -8.47523,-5.248786 -25.42153,-11.496963 -35.52975,-12.095238 -4.8168,-0.285092 -30.76213,2.58696 -39.30953,9.071426 -7.0174,2.952055 -49.64616,28.919657 -58.96429,31.750001 -6.86202,2.08431 -16.63093,5.29166 -16.63093,5.29166 -6.20544,1.85806 -6.96302,3.87231 -15.11907,3.77976 z"
       id="path12"
       inkscape:connector-curvature="0"
       sodipodi:nodetypes="ccscccsscsccc" />
  </g>
</svg>
